<svg width="142" height="83" viewBox="0 0 142 83" fill="none" xmlns="http://www.w3.org/2000/svg">
<g clip-path="url(#clip0_17_95)">
<path fill-rule="evenodd" clip-rule="evenodd" d="M89.9984 2.42525C91.5516 0.872365 93.6585 0 95.8548 0C98.051 0 100.157 0.872365 101.711 2.42525L134.844 35.5586C136.397 37.1119 137.27 39.2184 137.27 41.4149C137.27 43.6113 136.397 45.7178 134.844 47.2712L101.711 80.4045C100.148 81.9133 98.0563 82.7481 95.8843 82.7292C93.7123 82.7109 91.635 81.8393 90.099 80.3034C88.5636 78.768 87.6921 76.6901 87.6732 74.5186C87.6543 72.3466 88.4897 70.2539 89.9984 68.6919L108.992 49.6982H13.0213C10.8244 49.6982 8.71752 48.8255 7.1641 47.2721C5.61068 45.7187 4.73798 43.6117 4.73798 41.4149C4.73798 39.218 5.61068 37.1111 7.1641 35.5577C8.71752 34.0043 10.8244 33.1316 13.0213 33.1316H108.992L89.9984 14.1379C88.4453 12.5845 87.5732 10.478 87.5732 8.28156C87.5732 6.08511 88.4453 3.9786 89.9984 2.42525Z" fill="#334D9B"/>
</g>
<defs>
<clipPath id="clip0_17_95">
<rect width="142" height="82.8333" fill="white"/>
</clipPath>
</defs>
</svg>
