<svg width="52" height="49" viewBox="0 0 52 49" fill="none" xmlns="http://www.w3.org/2000/svg">
<g clip-path="url(#clip0_11_58)">
<path opacity="0.3" d="M43.7745 0H7.79553C3.49018 0 0 3.48352 0 7.78067V40.8987C0 45.1958 3.49018 48.6793 7.79553 48.6793H43.7745C48.0798 48.6793 51.57 45.1958 51.57 40.8987V7.78067C51.57 3.48352 48.0798 0 43.7745 0Z" fill="url(#paint0_linear_11_58)"/>
<path d="M25.1624 18.1129C25.1344 21.5586 22.4848 24.2052 19.0951 24.1858C15.9407 24.1643 13.2695 21.3863 13.2695 18.1323C13.2695 14.7577 16.0464 11.9323 19.3109 12.0012C20.8943 12.0508 22.3949 12.7191 23.4894 13.8622C24.5839 15.0054 25.1847 16.5319 25.1624 18.1129ZM19.2656 14.4519C18.7859 14.4482 18.3102 14.5396 17.8661 14.7209C17.4221 14.9022 17.0185 15.1696 16.6789 15.5078C16.3393 15.846 16.0703 16.2482 15.8877 16.6909C15.705 17.1337 15.6123 17.6083 15.6149 18.0871C15.6019 20.0554 17.2245 21.7481 19.1404 21.7739C20.1132 21.7905 21.0528 21.4206 21.7524 20.7458C22.452 20.0709 22.8544 19.1463 22.871 18.1754C22.8876 17.2044 22.5171 16.2666 21.8409 15.5684C21.1648 14.8701 20.2384 14.4685 19.2656 14.4519Z" fill="white"/>
<path d="M16.6458 24.9381L16.9198 25.8189C16.9737 25.9957 16.9571 26.1865 16.8735 26.3514C16.7899 26.5163 16.6457 26.6426 16.471 26.704C15.91 26.8978 15.3728 27.0852 14.8291 27.2445C14.6249 27.2794 14.4396 27.3848 14.3055 27.5423C14.1714 27.6998 14.097 27.8993 14.0955 28.106C13.8905 29.8826 13.6165 31.6485 13.3619 33.4187C13.3467 33.509 13.3138 33.5954 13.2652 33.673C13.2165 33.7505 13.1529 33.8178 13.0782 33.8708C13.0034 33.9238 12.9189 33.9616 12.8294 33.9819C12.74 34.0023 12.6475 34.0048 12.5571 33.9894L11.5904 33.8408C11.407 33.8086 11.2434 33.7061 11.1346 33.5552C11.0258 33.4044 10.9803 33.2171 11.0079 33.0332C11.1913 31.782 11.3682 30.5567 11.5581 29.3313C11.7113 28.345 11.9357 27.3651 12.0371 26.3724C12.0932 25.834 12.296 25.5885 12.803 25.4334C13.7697 25.1384 14.7233 24.8068 15.7331 24.4601C15.8244 24.4299 15.9209 24.4184 16.0168 24.4262C16.1126 24.4341 16.2059 24.4611 16.2911 24.5057C16.3763 24.5503 16.4516 24.6116 16.5125 24.6859C16.5735 24.7602 16.6188 24.846 16.6458 24.9381Z" fill="white"/>
<path d="M30.0391 34.0387V31.3984H39.455V34.0387H30.0391Z" fill="white"/>
<path d="M30.0312 23.0011V20.3652H39.4687V23.0011H30.0312Z" fill="white"/>
<path d="M39.5017 25.8594V28.4996H30.0664V25.8594H39.5017Z" fill="white"/>
<path d="M21.5628 25.5107L21.5865 25.4288C21.632 25.2838 21.706 25.1492 21.8043 25.033C21.9025 24.9169 22.0229 24.8214 22.1585 24.7522C22.2941 24.6831 22.4421 24.6416 22.594 24.6302C22.7459 24.6188 22.8985 24.6377 23.0429 24.6859C24.0052 25.0067 24.9503 25.3319 25.8867 25.6657C25.9875 25.7222 26.0748 25.8001 26.1422 25.8939C26.2097 25.9876 26.2558 26.095 26.2772 26.2084C26.6311 28.3382 26.9634 30.4702 27.3064 32.656C27.3309 32.8062 27.3249 32.9597 27.2889 33.1075C27.253 33.2553 27.1877 33.3944 27.097 33.5167C27.0063 33.6389 26.892 33.7418 26.7609 33.8192C26.6297 33.8966 26.4843 33.9471 26.3333 33.9675H26.3096C26.0164 34.0071 25.7192 33.9318 25.4803 33.7576C25.2415 33.5834 25.0793 33.3237 25.028 33.0329C24.7798 31.6202 24.5166 30.2484 24.4001 28.8658C24.3095 27.7891 23.8477 27.3175 22.8897 27.1C22.6955 27.0569 22.5057 27.0009 22.3115 26.9384C22.0231 26.8473 21.7826 26.646 21.6423 26.3786C21.5021 26.1111 21.4735 25.7991 21.5628 25.5107Z" fill="white"/>
<path d="M30.0664 14.834H34.6945V17.4397H30.0664V14.834Z" fill="white"/>
</g>
<defs>
<linearGradient id="paint0_linear_11_58" x1="11704.8" y1="9107.9" x2="16807.3" y2="1561.24" gradientUnits="userSpaceOnUse">
<stop stop-color="#4FB9EF"/>
<stop offset="1" stop-color="#57E5EE"/>
</linearGradient>
<clipPath id="clip0_11_58">
<rect width="52" height="49" fill="white"/>
</clipPath>
</defs>
</svg>
