<svg width="52" height="49" viewBox="0 0 52 49" fill="none" xmlns="http://www.w3.org/2000/svg">
<g clip-path="url(#clip0_10_48)">
<path d="M43.7745 0H7.79553C3.49018 0 0 3.48352 0 7.78066V40.8987C0 45.1958 3.49018 48.6793 7.79553 48.6793H43.7745C48.0798 48.6793 51.57 45.1958 51.57 40.8987V7.78066C51.57 3.48352 48.0798 0 43.7745 0Z" fill="url(#paint0_linear_10_48)" fill-opacity="0.3"/>
<path d="M36.5378 12.8568L35.6599 12.1584L39 11V14.7525L38.0611 14.0395C37.5752 14.7136 37.0964 15.3707 36.6223 16.0302L32.1626 22.1992C30.3576 24.6961 27.2897 24.5792 25.6843 21.9559C24.398 19.8468 23.1141 17.7426 21.8325 15.6432C21.0016 14.278 19.5815 14.1709 18.5863 15.3999C17.0168 17.3629 15.4496 19.3284 13.8848 21.2964L13.4482 21.8366L12 20.5906L13.5679 18.6438C14.776 17.135 15.9848 15.627 17.1944 14.1198C18.9571 11.9296 21.924 12.1316 23.4075 14.5408C24.7242 16.6775 26.0199 18.8287 27.332 20.9703C28.184 22.3623 29.6792 22.4304 30.6181 21.0944C32.5193 18.4678 34.4175 15.8387 36.3124 13.2072C36.3805 13.0953 36.4462 13.0053 36.5378 12.8568Z" fill="white"/>
<path d="M21 38H18V19H21V38Z" fill="white"/>
<path d="M34 21H38V38H34V21Z" fill="white"/>
<path d="M13 38H10V25H13V38Z" fill="white"/>
<path d="M26 29H30V38H26V29Z" fill="white"/>
</g>
<defs>
<linearGradient id="paint0_linear_10_48" x1="5.30085" y1="52.8791" x2="35.509" y2="10.6286" gradientUnits="userSpaceOnUse">
<stop stop-color="#4FB9EF"/>
<stop offset="1" stop-color="#57E5EE"/>
</linearGradient>
<clipPath id="clip0_10_48">
<rect width="52" height="49" fill="white"/>
</clipPath>
</defs>
</svg>
