<svg width="52" height="50" viewBox="0 0 52 50" fill="none" xmlns="http://www.w3.org/2000/svg">
<g clip-path="url(#clip0_11_71)">
<path d="M44.026 0.3125H7.84032C3.51023 0.3125 0 3.81604 0 8.13788V41.4462C0 45.768 3.51023 49.2716 7.84032 49.2716H44.026C48.3561 49.2716 51.8664 45.768 51.8664 41.4462V8.13788C51.8664 3.81604 48.3561 0.3125 44.026 0.3125Z" fill="url(#paint0_linear_11_71)" fill-opacity="0.3"/>
<path d="M14.0087 25.5046C14.0087 22.201 14.0087 18.8988 14.0087 15.5981C14.0087 13.4131 15.5969 12.0082 18.0927 12.0038C21.496 12.0038 24.8789 11.9885 28.2709 12.0191C28.6811 12.0349 29.0744 12.1808 29.3895 12.4343C32.4646 15.1596 35.5162 17.9032 38.5444 20.665C38.8033 20.9137 38.9569 21.2462 38.9755 21.5979C39.0027 26.2592 39.0073 30.9248 38.9891 35.5947C38.9891 37.5306 37.3805 38.9749 35.1706 38.9836C29.3713 39.0055 23.5713 39.0055 17.7705 38.9836C15.6219 38.9836 14.0132 37.5153 14.0019 35.6253C13.9951 32.2518 14.0087 28.8782 14.0087 25.5046ZM26.6419 13.6775C26.554 13.6422 26.4628 13.6152 26.3696 13.5966C23.6636 13.5966 20.9575 13.593 18.2515 13.5857C16.5499 13.5857 15.8193 14.2412 15.8193 15.7335C15.8193 22.2607 15.8193 28.7872 15.8193 35.3129C15.8193 36.7637 16.5521 37.4083 18.222 37.4083C23.7445 37.4083 29.2654 37.4083 34.7849 37.4083C36.4616 37.4083 37.1899 36.7681 37.1899 35.3151C37.1899 31.3924 37.1899 27.4711 37.1899 23.5513C37.1899 23.3197 37.1649 23.0881 37.149 22.78C35.3339 22.78 33.5574 22.78 31.7877 22.78C28.7111 22.7625 26.6487 20.9556 26.6396 18.2746C26.6373 16.7474 26.6419 15.2201 26.6419 13.6775ZM28.6226 13.9768C28.6226 15.7576 28.5364 17.3569 28.6521 18.9476C28.7315 20.0401 29.6186 20.8398 30.7962 20.9446C32.6113 21.1063 34.4627 20.9883 36.4094 20.9883L28.6226 13.9768Z" fill="white"/>
<path d="M18 28V26H33V28H18Z" fill="white"/>
<path d="M18 23V20H24V23H18Z" fill="white"/>
<path d="M33 31V34H18V31H33Z" fill="white"/>
</g>
<defs>
<linearGradient id="paint0_linear_11_71" x1="36604.2" y1="9160.55" x2="41736" y2="1570.53" gradientUnits="userSpaceOnUse">
<stop stop-color="#4FB9EF"/>
<stop offset="1" stop-color="#57E5EE"/>
</linearGradient>
<clipPath id="clip0_11_71">
<rect width="52" height="50" fill="white"/>
</clipPath>
</defs>
</svg>
