<svg width="52" height="49" viewBox="0 0 52 49" fill="none" xmlns="http://www.w3.org/2000/svg">
<g clip-path="url(#clip0_11_84)">
<path d="M44.026 0H7.84033C3.51024 0 0 3.50354 0 7.82538V41.1337C0 45.4555 3.51024 48.9591 7.84033 48.9591H44.026C48.3561 48.9591 51.8664 45.4555 51.8664 41.1337V7.82538C51.8664 3.50354 48.3561 0 44.026 0Z" fill="url(#paint0_linear_11_84)" fill-opacity="0.3"/>
<path d="M14.9081 14.8562C14.934 15.3262 14.9411 15.7469 14.9882 16.1676C15.0643 16.5955 15.2865 16.9838 15.617 17.2666C15.9476 17.5494 16.3661 17.7092 16.8013 17.7188C17.13 17.7228 17.4538 17.6396 17.7397 17.4778C18.0256 17.3159 18.2633 17.0811 18.4285 16.7975C18.6257 16.4494 18.7265 16.0551 18.7205 15.6553C18.7205 15.3967 18.7205 15.1382 18.7205 14.8656H30.3341C30.3341 15.164 30.3199 15.4719 30.3341 15.7775C30.329 16.1669 30.4423 16.5488 30.659 16.8727C30.8104 17.0939 31.0075 17.2803 31.2369 17.4193C31.4664 17.5583 31.723 17.6468 31.9895 17.6788C32.4348 17.7383 32.8867 17.6343 33.2609 17.3862C33.6352 17.138 33.9063 16.7626 34.024 16.3298C34.0738 16.1303 34.1038 15.9264 34.1134 15.7211C34.1276 15.4461 34.1134 15.1687 34.1134 14.8914C35.5051 14.6681 36.6142 15.0677 37.0286 16.5883C37.0405 16.6455 37.0453 16.7039 37.0428 16.7622V24.283C37.0428 24.3324 37.0428 24.3818 37.0428 24.4476H35.0883V20.6637H13.9733V33.6253C13.9733 34.0507 13.9733 34.0507 14.3901 34.0507H25.4574V36.0085H25.1937C21.4425 36.0085 17.6891 36.0085 13.9356 36.0085C13.2056 36.0085 12.2143 35.2353 12.0965 34.5443C12.0434 34.3031 12.0111 34.0577 12 33.811C12 28.1422 12 22.4733 12 16.8045C12 15.7963 12.9961 14.8185 13.9733 14.835C14.2865 14.8562 14.5949 14.8562 14.9081 14.8562Z" fill="white"/>
<path d="M35.5398 41.7682C32.9354 41.7823 31.0917 40.9926 29.587 39.4626C28.8106 38.6921 28.2133 37.7608 27.8374 36.7345C27.4614 35.7083 27.3159 34.6121 27.4112 33.5235C27.5127 31.63 28.3408 29.8483 29.7235 28.548C30.4997 27.7792 31.4342 27.1882 32.4621 26.816C33.4901 26.4438 34.5869 26.2994 35.6763 26.3928C37.5738 26.5047 39.3562 27.3382 40.6566 28.7219C42.2602 30.3671 42.9431 32.3813 42.8089 34.6728C42.597 38.2992 39.4063 41.8364 35.5398 41.7682ZM35.0877 39.7963C36.2172 39.8003 37.3227 39.471 38.2653 38.8499C39.2079 38.2288 39.9457 37.3436 40.3859 36.3054C40.8261 35.2672 40.9492 34.1223 40.7396 33.0145C40.5301 31.9067 39.9972 30.8854 39.208 30.0789C38.4189 29.2724 37.4085 28.7166 36.3039 28.4813C35.1992 28.246 34.0495 28.3417 32.9992 28.7565C31.9489 29.1712 31.0448 29.8864 30.4004 30.8123C29.7561 31.7382 29.4001 32.8335 29.3774 33.9606C29.3582 34.7207 29.4918 35.477 29.7702 36.1847C30.0487 36.8924 30.4664 37.5373 30.9986 38.0813C31.5309 38.6252 32.167 39.0572 32.8693 39.3518C33.5716 39.6464 34.3259 39.7975 35.0877 39.7963Z" fill="white"/>
<path d="M15.8594 22.5215H19.7141V26.3712H15.8594V22.5215Z" fill="white"/>
<path d="M25.4704 26.3704H21.6133V22.5254H25.4704V26.3704Z" fill="white"/>
<path d="M15.8633 28.3184H19.718V32.1657H15.8633V28.3184Z" fill="white"/>
<path d="M21.6133 32.1681V28.3184H25.468V32.1681H21.6133Z" fill="white"/>
<path d="M27.4336 22.5098C28.6698 22.5098 29.8896 22.5098 31.107 22.5098C31.2671 22.5098 31.3048 22.5826 31.3048 22.726C31.3048 23.934 31.3048 25.1421 31.3048 26.3712H27.4336V22.5098Z" fill="white"/>
<path d="M15.8398 13.8649C15.8398 13.2444 15.8563 12.624 15.8398 12.0035C15.8186 11.7742 15.886 11.5454 16.0283 11.3641C16.1705 11.1827 16.3769 11.0626 16.6051 11.0282C16.8547 10.9694 17.1174 11.0103 17.3373 11.142C17.5572 11.2736 17.7169 11.4858 17.7824 11.7332C17.8028 11.8099 17.8123 11.889 17.8107 11.9683V15.818C17.8117 15.9503 17.786 16.0815 17.7353 16.2038C17.6846 16.326 17.6098 16.4369 17.5154 16.5298C17.421 16.6227 17.3089 16.6958 17.1857 16.7447C17.0625 16.7936 16.9307 16.8173 16.7982 16.8145C16.6702 16.8133 16.5437 16.7867 16.4261 16.7362C16.3085 16.6858 16.2021 16.6125 16.1131 16.5207C16.0242 16.4288 15.9544 16.3202 15.9079 16.2012C15.8613 16.0822 15.839 15.9551 15.8421 15.8274L15.8398 13.8649Z" fill="white"/>
<path d="M31.2458 13.8644C31.2458 13.2439 31.2623 12.6235 31.2458 12.003C31.2252 11.7735 31.2927 11.5447 31.4349 11.3632C31.577 11.1816 31.783 11.0608 32.0111 11.0253C32.2607 10.9678 32.5228 11.0092 32.7424 11.1407C32.962 11.2722 33.1219 11.4836 33.1885 11.7304C33.2089 11.807 33.2184 11.8861 33.2168 11.9654C33.2168 13.2486 33.2168 14.5319 33.2168 15.8151C33.2181 15.9473 33.1927 16.0785 33.1423 16.2007C33.0918 16.323 33.0173 16.4339 32.923 16.5268C32.8288 16.6198 32.7168 16.6929 32.5938 16.7418C32.4707 16.7907 32.339 16.8145 32.2066 16.8116C32.0784 16.8107 31.9517 16.7844 31.8338 16.734C31.7159 16.6837 31.6093 16.6105 31.52 16.5186C31.4308 16.4267 31.3608 16.318 31.3142 16.1989C31.2675 16.0797 31.2451 15.9524 31.2482 15.8245L31.2458 13.8644Z" fill="white"/>
<path d="M35.1287 34.0507C36.0942 34.0507 37.0267 34.0742 37.9544 34.0507C38.0841 34.0444 38.2138 34.0636 38.3361 34.1073C38.4584 34.151 38.5708 34.2183 38.6671 34.3054C38.7633 34.3925 38.8413 34.4976 38.8968 34.6148C38.9523 34.732 38.9842 34.859 38.9905 34.9884C38.9969 35.1179 38.9776 35.2474 38.9338 35.3694C38.89 35.4914 38.8226 35.6037 38.7353 35.6997C38.6481 35.7957 38.5427 35.8737 38.4253 35.9291C38.3079 35.9845 38.1807 36.0162 38.051 36.0226H34.0691C33.8306 36.0144 33.6042 35.9162 33.4355 35.7478C33.2668 35.5794 33.1684 35.3534 33.1602 35.1154C33.1602 33.7898 33.1602 32.4643 33.1602 31.1387C33.1632 30.9587 33.219 30.7835 33.3207 30.6348C33.4224 30.4861 33.5655 30.3704 33.7324 30.302C33.9075 30.2265 34.1004 30.2017 34.289 30.2303C34.4777 30.259 34.6544 30.34 34.7991 30.4642C34.9093 30.5699 34.996 30.6975 35.0536 30.8388C35.1112 30.9801 35.1384 31.132 35.1334 31.2844C35.1217 32.1893 35.1287 33.1035 35.1287 34.0507Z" fill="white"/>
</g>
<defs>
<linearGradient id="paint0_linear_11_84" x1="1057.55" y1="21089.6" x2="6189.39" y2="13500.1" gradientUnits="userSpaceOnUse">
<stop stop-color="#4FB9EF"/>
<stop offset="1" stop-color="#57E5EE"/>
</linearGradient>
<clipPath id="clip0_11_84">
<rect width="52" height="49" fill="white"/>
</clipPath>
</defs>
</svg>
