<svg width="238" height="79" viewBox="0 0 238 79" fill="none" xmlns="http://www.w3.org/2000/svg">
<g clip-path="url(#clip0_17_103)">
<path d="M80.3919 9.22822C80.0552 6.83894 78.9201 4.64227 77.1793 3.01083C75.4385 1.37938 73.1991 0.413613 70.841 0.277344H69.5533C67.6947 0.438761 65.9075 1.08429 64.3624 2.15233C62.8173 3.22037 61.5658 4.67529 60.7272 6.37823C58.0325 10.8319 56.2929 15.7736 53.9051 20.3754C52.1058 23.3387 49.3258 27.0515 45.4628 26.2933C44.6675 26.131 43.918 25.7886 43.2693 25.2911C42.6207 24.7936 42.0895 24.1539 41.7147 23.4188C41.34 22.6838 41.1313 21.8722 41.1041 21.0439C41.0768 20.2155 41.2316 19.3914 41.5572 18.6323C41.7794 18.0866 42.1138 17.5962 42.5378 17.1942C43.4729 16.4521 44.1924 15.4636 44.6191 14.335C45.0458 13.2063 45.1636 11.9802 44.9597 10.7883C44.0387 4.1209 34.9568 2.83972 32.2791 9.04519C31.2387 11.442 31.9295 14.2048 30.9403 16.6452C29.7624 20.5579 27.2193 23.8921 23.7941 26.0144C21.6196 27.4699 18.8055 27.7575 17.0573 29.8405C10.6275 36.4556 16.3325 47.8556 25.3547 46.2955C26.8107 46.0781 28.1956 45.5114 29.3962 44.6419C30.5967 43.7724 31.5788 42.6247 32.2621 41.2928C32.8408 40.2102 33.78 39.3754 34.9092 38.9397C36.0384 38.504 37.2831 38.4963 38.4174 38.9179C39.5518 39.3394 40.5008 40.1625 41.0924 41.2377C41.6841 42.313 41.8792 43.5693 41.6424 44.779C39.9369 50.0083 35.963 53.9477 33.9676 58.994C32.4753 62.2972 31.0767 65.9665 31.9465 69.6096C32.5351 72.3595 34.0826 74.7965 36.3002 76.4658C38.5178 78.1351 41.254 78.9227 43.998 78.6815C46.7421 78.4403 49.3065 77.1869 51.2127 75.1551C53.1188 73.1233 54.2365 70.4521 54.3571 67.6399C53.8166 58.5179 55.4433 49.3977 59.0984 41.0574C62.3383 33.7781 67.0528 27.2844 72.9302 22.0052C74.1241 20.9332 75.3947 19.9571 76.6397 18.9374C77.7549 18.03 78.6722 16.8946 79.333 15.6039C79.9938 14.3132 80.3835 12.8956 80.4772 11.442V10.0911C80.4345 9.80345 80.4601 9.51583 80.3919 9.22822ZM14.9595 24.0447C11.9156 24.6625 8.75608 24.0265 6.16875 22.275C3.58142 20.5235 1.77576 17.7984 1.14481 14.6929C-0.432791 7.72043 5.02488 0.608535 11.9664 0.277344H13.3734C27.1029 1.51495 28.3735 20.9942 14.9937 24.0708L14.9595 24.0447Z" fill="url(#paint0_linear_17_103)"/>
<path d="M115.934 4.92383H103.526C101.329 4.92351 99.1773 5.56055 97.3205 6.76088C95.4638 7.96121 93.9785 9.67553 93.0374 11.7045L73.6797 53.391H91.1613L93.7196 46.6365H104.268L104.754 53.391H116.403L121.989 45.2768L115.934 4.92383ZM97.6338 35.1929L102.998 21.6141L103.757 35.1929H97.6338Z" fill="#A0B3C1"/>
<path d="M178.087 4.85352H157.229L150.696 17.3778L147.942 4.85352H127.092L136.677 28.2199L122.453 48.5795L121.097 50.5317L119.102 53.3904H139.96L147.319 39.1057L150.321 53.3904H171.18L161.407 28.2199L178.087 4.85352Z" fill="#A0B3C1"/>
<path d="M179.731 4.85352H197.281L189.776 53.3904H172.227L179.731 4.85352Z" fill="#A0B3C1"/>
<path d="M192.957 48.1878L201.834 35.1145C205.689 38.6007 210.225 40.3874 214.08 40.3874C216.007 40.3874 217.039 39.8993 217.039 38.9842C217.039 38.2782 216.075 37.7814 213.185 37.3631C206.576 36.3782 198.943 31.9507 198.943 24.2897C198.943 12.332 208.989 4.45312 221.584 4.45312C228.048 4.45312 233.966 6.56229 237.616 10.2228L229.361 21.9714C225.157 18.6595 221.687 17.8838 218.625 17.8838C216.971 17.8838 215.598 18.3109 215.598 19.226C215.598 19.932 216.451 20.2109 218.898 20.5595C222.148 21.0731 225.262 22.2594 228.048 24.0457C231.562 26.4338 233.421 29.1792 233.421 33.3278C233.421 45.8433 223.187 54.2451 210.157 54.2451C205.467 54.2364 199.412 53.7396 192.957 48.1878Z" fill="#A0B3C1"/>
<path d="M79.374 63.9805L80.3921 71.3779L83.9663 63.9805H87.3062L85.4604 74.6445H82.9409L83.395 72.0298L84.479 67.2104L80.7437 74.6445H79.0811L77.8726 66.9321L77.1987 72.2788L76.7812 74.6445H74.2764L76.1221 63.9805H79.374ZM93.5024 72.6523H90.0967L89.1519 74.6445H86.3906L92.0376 63.9805H94.396L96.3662 74.6445H93.7588L93.5024 72.6523ZM91.0342 70.6675H93.2461L92.7773 66.9907L91.0342 70.6675ZM101.786 70.8799H100.395L99.7354 74.6445H97.2305L99.0762 63.9805L102.841 63.9878C104.047 63.9878 104.975 64.271 105.624 64.8374C106.278 65.3989 106.571 66.168 106.503 67.1445C106.449 67.916 106.227 68.5557 105.836 69.0635C105.446 69.5664 104.899 69.9644 104.196 70.2573L105.631 74.52V74.6445H102.958L101.786 70.8799ZM100.731 68.895L102.196 68.9097C102.597 68.9097 102.943 68.812 103.236 68.6167C103.534 68.4214 103.747 68.1553 103.874 67.8184C104 67.4766 104.037 67.147 103.983 66.8296C103.886 66.2876 103.539 66.002 102.943 65.9727L101.244 65.9653L100.731 68.895ZM116.068 65.9653H112.963L111.461 74.6445H108.949L110.458 65.9653H107.404L107.755 63.9805H116.413L116.068 65.9653ZM118.346 74.6445H115.841L117.694 63.9805H120.192L118.346 74.6445ZM126.535 72.6523H123.129L122.184 74.6445H119.423L125.07 63.9805H127.428L129.398 74.6445H126.791L126.535 72.6523ZM124.066 70.6675H126.278L125.81 66.9907L124.066 70.6675ZM133.112 72.667H137.455L137.111 74.6445H130.263L132.108 63.9805H134.621L133.112 72.667ZM148.2 72.6523H144.794L143.849 74.6445H141.088L146.735 63.9805H149.093L151.063 74.6445H148.456L148.2 72.6523ZM145.731 70.6675H147.943L147.475 66.9907L145.731 70.6675ZM156.483 70.8799H155.092L154.433 74.6445H151.928L153.773 63.9805L157.538 63.9878C158.744 63.9878 159.672 64.271 160.321 64.8374C160.976 65.3989 161.269 66.168 161.2 67.1445C161.146 67.916 160.924 68.5557 160.534 69.0635C160.143 69.5664 159.596 69.9644 158.893 70.2573L160.329 74.52V74.6445H157.655L156.483 70.8799ZM155.429 68.895L156.894 68.9097C157.294 68.9097 157.641 68.812 157.934 68.6167C158.231 68.4214 158.444 68.1553 158.571 67.8184C158.698 67.4766 158.734 67.147 158.681 66.8296C158.583 66.2876 158.236 66.002 157.641 65.9727L155.941 65.9653L155.429 68.895ZM170.766 65.9653H167.66L166.159 74.6445H163.646L165.155 65.9653H162.101L162.453 63.9805H171.11L170.766 65.9653ZM176.112 71.7588C176.22 71.207 175.922 70.7798 175.219 70.4771L174.018 69.979C172.333 69.2222 171.532 68.1919 171.615 66.8882C171.649 66.2925 171.854 65.7627 172.23 65.2988C172.606 64.8301 173.126 64.4663 173.791 64.2075C174.455 63.9487 175.18 63.8242 175.966 63.834C177.021 63.8535 177.868 64.1611 178.507 64.7568C179.152 65.3525 179.469 66.1509 179.459 67.1519H176.969C176.984 66.7417 176.896 66.4146 176.706 66.1704C176.52 65.9214 176.212 65.792 175.783 65.7822C175.363 65.7725 174.992 65.8701 174.669 66.0752C174.347 66.2803 174.157 66.5562 174.098 66.9028C174.005 67.3911 174.367 67.7915 175.182 68.104C176.002 68.4165 176.598 68.6851 176.969 68.9097C178.136 69.6079 178.683 70.5503 178.61 71.7368C178.571 72.3521 178.373 72.8916 178.017 73.3555C177.66 73.8193 177.165 74.1782 176.53 74.4321C175.9 74.686 175.192 74.8081 174.406 74.7983C173.83 74.7886 173.295 74.6982 172.802 74.5273C172.309 74.3564 171.886 74.1074 171.535 73.7803C170.822 73.1211 170.48 72.2544 170.509 71.1802L173.021 71.1875C172.992 71.7344 173.097 72.1494 173.336 72.4326C173.576 72.7109 173.979 72.8501 174.545 72.8501C174.965 72.8501 175.314 72.7549 175.592 72.5645C175.875 72.3691 176.049 72.1006 176.112 71.7588Z" fill="#A0B3C1"/>
</g>
<defs>
<linearGradient id="paint0_linear_17_103" x1="22.6429" y1="-19.2194" x2="91.8223" y2="96.0778" gradientUnits="userSpaceOnUse">
<stop stop-color="#39D0B5"/>
<stop offset="1" stop-color="#527AF5"/>
</linearGradient>
<clipPath id="clip0_17_103">
<rect width="238" height="79" fill="white"/>
</clipPath>
</defs>
</svg>
