<svg width="184" height="69" viewBox="0 0 184 69" fill="none" xmlns="http://www.w3.org/2000/svg">
<g clip-path="url(#clip0_284_90)">
<path d="M63.2437 14.0998C63.0081 12.4346 62.214 10.9036 60.9961 9.76648C59.7782 8.62942 58.2115 7.9563 56.5617 7.86133H55.6608C54.3605 7.97383 53.1101 8.42375 52.0291 9.16814C50.9482 9.91253 50.0726 10.9266 49.4859 12.1135C47.6006 15.2175 46.3835 18.6618 44.713 21.8691C43.4542 23.9344 41.5092 26.5221 38.8066 25.9937C38.2502 25.8806 37.7258 25.6419 37.272 25.2952C36.8182 24.9484 36.4466 24.5025 36.1844 23.9902C35.9222 23.4779 35.7762 22.9123 35.7571 22.335C35.7381 21.7576 35.8464 21.1833 36.0741 20.6542C36.2296 20.2739 36.4636 19.932 36.7602 19.6519C37.4144 19.1347 37.9178 18.4457 38.2164 17.6591C38.5149 16.8725 38.5972 16.0179 38.4546 15.1872C37.8103 10.5402 31.4564 9.64723 29.583 13.9723C28.8552 15.6427 29.3384 17.5683 28.6464 19.2692C27.8223 21.9963 26.0431 24.3201 23.6468 25.7993C22.1254 26.8137 20.1566 27.0142 18.9336 28.466C14.4352 33.0765 18.4265 41.0219 24.7386 39.9346C25.7572 39.783 26.7261 39.3881 27.5661 38.7821C28.406 38.176 29.0931 37.3761 29.5711 36.4478C29.976 35.6933 30.6331 35.1115 31.4231 34.8078C32.2131 34.5042 33.0839 34.4988 33.8775 34.7926C34.6711 35.0864 35.3351 35.6601 35.749 36.4095C36.163 37.1589 36.2995 38.0345 36.1338 38.8776C34.9406 42.5223 32.1604 45.268 30.7643 48.7851C29.7203 51.0873 28.7418 53.6447 29.3504 56.1838C29.7621 58.1004 30.8448 59.7989 32.3963 60.9624C33.9478 62.1258 35.862 62.6747 37.7818 62.5066C39.7016 62.3385 41.4957 61.4649 42.8293 60.0489C44.1629 58.6328 44.9449 56.771 45.0292 54.811C44.6511 48.4532 45.7892 42.0967 48.3464 36.2838C50.6131 31.2104 53.9114 26.6844 58.0234 23.005C58.8586 22.2578 59.7476 21.5775 60.6186 20.8668C61.3988 20.2344 62.0406 19.4431 62.5029 18.5435C62.9652 17.6439 63.2379 16.6559 63.3033 15.6427V14.7012C63.2735 14.5007 63.2914 14.3003 63.2437 14.0998ZM17.4659 24.4264C15.3363 24.8571 13.1259 24.4138 11.3157 23.193C9.50557 21.9723 8.24229 20.073 7.80088 17.9085C6.69715 13.0489 10.5154 8.09216 15.3718 7.86133H16.3562C25.9616 8.7239 26.8506 22.3004 17.4898 24.4447L17.4659 24.4264Z" fill="url(#paint0_linear_284_90)"/>
<path d="M88.1088 11.0977H79.4282C77.8911 11.0974 76.3855 11.5414 75.0865 12.378C73.7875 13.2146 72.7483 14.4094 72.0899 15.8236L58.5469 44.8778H70.7774L72.5672 40.1701H79.9472L80.2873 44.8778H88.437L92.3448 39.2225L88.1088 11.0977ZM75.3056 32.1943L79.0583 22.7303L79.5893 32.1943H75.3056Z" fill="#2E304F"/>
<path d="M131.588 11.0508H116.995L112.425 19.7798L110.498 11.0508H95.9105L102.616 27.3365L92.665 41.5264L91.7164 42.8871L90.3203 44.8795H104.913L110.062 34.9235L112.162 44.8795H126.755L119.918 27.3365L131.588 11.0508Z" fill="#2E304F"/>
<path d="M132.738 11.0508H145.017L139.766 44.8795H127.488L132.738 11.0508Z" fill="#2E304F"/>
<path d="M141.992 41.2513L148.203 32.1395C150.9 34.5693 154.074 35.8146 156.77 35.8146C158.119 35.8146 158.84 35.4744 158.84 34.8366C158.84 34.3446 158.166 33.9983 156.144 33.7068C151.52 33.0203 146.18 29.9345 146.18 24.595C146.18 16.2609 153.208 10.7695 162.02 10.7695C166.543 10.7695 170.683 12.2396 173.237 14.7908L167.461 22.9792C164.52 20.6709 162.092 20.1303 159.95 20.1303C158.793 20.1303 157.832 20.428 157.832 21.0658C157.832 21.5578 158.429 21.7522 160.141 21.9952C162.415 22.3531 164.593 23.1799 166.543 24.425C169.001 26.0894 170.301 28.0028 170.301 30.8943C170.301 39.6172 163.142 45.473 154.026 45.473C150.744 45.4669 146.509 45.1207 141.992 41.2513Z" fill="#2E304F"/>
<path d="M64.1123 53.3359L65.1304 60.7334L68.7046 53.3359H72.0444L70.1987 64H67.6792L68.1333 61.3853L69.2173 56.5659L65.4819 64H63.8193L62.6108 56.2876L61.937 61.6343L61.5195 64H59.0146L60.8604 53.3359H64.1123ZM78.2407 62.0078H74.835L73.8901 64H71.1289L76.7759 53.3359H79.1343L81.1045 64H78.4971L78.2407 62.0078ZM75.7725 60.0229H77.9844L77.5156 56.3462L75.7725 60.0229ZM86.5244 60.2354H85.1328L84.4736 64H81.9688L83.8145 53.3359L87.5791 53.3433C88.7852 53.3433 89.7129 53.6265 90.3623 54.1929C91.0166 54.7544 91.3096 55.5234 91.2412 56.5C91.1875 57.2715 90.9653 57.9111 90.5747 58.4189C90.1841 58.9219 89.6372 59.3198 88.9341 59.6128L90.3696 63.8755V64H87.6963L86.5244 60.2354ZM85.4697 58.2505L86.9346 58.2651C87.335 58.2651 87.6816 58.1675 87.9746 57.9722C88.2725 57.7769 88.4849 57.5107 88.6118 57.1738C88.7388 56.832 88.7754 56.5024 88.7217 56.1851C88.624 55.6431 88.2773 55.3574 87.6816 55.3281L85.9824 55.3208L85.4697 58.2505ZM100.807 55.3208H97.7012L96.1997 64H93.6875L95.1963 55.3208H92.1421L92.4937 53.3359H101.151L100.807 55.3208ZM103.084 64H100.58L102.433 53.3359H104.93L103.084 64ZM111.273 62.0078H107.867L106.922 64H104.161L109.808 53.3359H112.167L114.137 64H111.529L111.273 62.0078ZM108.805 60.0229H111.017L110.548 56.3462L108.805 60.0229ZM117.85 62.0225H122.193L121.849 64H115.001L116.847 53.3359H119.359L117.85 62.0225ZM132.938 62.0078H129.532L128.587 64H125.826L131.473 53.3359H133.832L135.802 64H133.194L132.938 62.0078ZM130.47 60.0229H132.682L132.213 56.3462L130.47 60.0229ZM141.222 60.2354H139.83L139.171 64H136.666L138.512 53.3359L142.276 53.3433C143.482 53.3433 144.41 53.6265 145.06 54.1929C145.714 54.7544 146.007 55.5234 145.938 56.5C145.885 57.2715 145.663 57.9111 145.272 58.4189C144.881 58.9219 144.334 59.3198 143.631 59.6128L145.067 63.8755V64H142.394L141.222 60.2354ZM140.167 58.2505L141.632 58.2651C142.032 58.2651 142.379 58.1675 142.672 57.9722C142.97 57.7769 143.182 57.5107 143.309 57.1738C143.436 56.832 143.473 56.5024 143.419 56.1851C143.321 55.6431 142.975 55.3574 142.379 55.3281L140.68 55.3208L140.167 58.2505ZM155.504 55.3208H152.398L150.897 64H148.385L149.894 55.3208H146.839L147.191 53.3359H155.848L155.504 55.3208ZM160.851 61.1143C160.958 60.5625 160.66 60.1353 159.957 59.8325L158.756 59.3345C157.071 58.5776 156.271 57.5474 156.354 56.2437C156.388 55.6479 156.593 55.1182 156.969 54.6543C157.345 54.1855 157.865 53.8218 158.529 53.563C159.193 53.3042 159.918 53.1797 160.704 53.1895C161.759 53.209 162.606 53.5166 163.246 54.1123C163.89 54.708 164.208 55.5063 164.198 56.5073H161.708C161.722 56.0972 161.634 55.77 161.444 55.5259C161.258 55.2769 160.951 55.1475 160.521 55.1377C160.101 55.1279 159.73 55.2256 159.408 55.4307C159.085 55.6357 158.895 55.9116 158.836 56.2583C158.744 56.7466 159.105 57.147 159.92 57.4595C160.741 57.772 161.336 58.0405 161.708 58.2651C162.875 58.9634 163.421 59.9058 163.348 61.0923C163.309 61.7075 163.111 62.2471 162.755 62.7109C162.398 63.1748 161.903 63.5337 161.268 63.7876C160.638 64.0415 159.93 64.1636 159.144 64.1538C158.568 64.144 158.033 64.0537 157.54 63.8828C157.047 63.7119 156.625 63.4629 156.273 63.1357C155.56 62.4766 155.218 61.6099 155.248 60.5356L157.76 60.543C157.73 61.0898 157.835 61.5049 158.075 61.7881C158.314 62.0664 158.717 62.2056 159.283 62.2056C159.703 62.2056 160.052 62.1104 160.331 61.9199C160.614 61.7246 160.787 61.4561 160.851 61.1143Z" fill="#2E304F"/>
</g>
<defs>
<linearGradient id="paint0_linear_284_90" x1="22.8414" y1="-5.72728" x2="70.971" y2="74.7925" gradientUnits="userSpaceOnUse">
<stop stop-color="#39D0B5"/>
<stop offset="1" stop-color="#527AF5"/>
</linearGradient>
<clipPath id="clip0_284_90">
<rect width="184" height="69" fill="white"/>
</clipPath>
</defs>
</svg>
